<svg xmlns="http://www.w3.org/2000/svg" width="280" height="102"><path fill-rule="evenodd" d="M41.56 83.12H0V59.83L46.89 1.52H78.4v52.065h8.22V83.12H78.4v16.442H41.56v-16.44zm6.85-28.01V40.95L35.47 55.11h12.94zm53.99 33.262c-7.917-8.475-11.875-21.085-11.875-37.83 0-16.747 3.958-29.357 11.875-37.83C110.314 4.236 122.848 0 140 0s29.686 4.237 37.602 12.712c7.917 8.474 11.875 21.084 11.875 37.83s-3.958 29.356-11.875 37.83c-7.916 8.475-20.45 12.713-37.602 12.713-17.152 0-29.686-4.238-37.602-12.712zm46.736-23.292c1.827-3.095 2.74-7.94 2.74-14.538 0-6.597-.913-11.443-2.74-14.538-1.827-3.096-4.87-4.643-9.134-4.643-4.263 0-7.307 1.55-9.134 4.646-1.827 3.095-2.74 7.94-2.74 14.538 0 6.597.913 11.443 2.74 14.54 1.827 3.094 4.87 4.642 9.134 4.642 4.263 0 7.307-1.548 9.134-4.643zm85.804 18.04h-41.56V59.83l46.886-58.31h31.513v52.065H280V83.12h-8.22v16.442h-36.842v-16.44zm6.85-28.01V40.95l-12.94 14.16h12.94z"/></svg>