<svg xmlns="http://www.w3.org/2000/svg" width="512" height="400"><path  fill="#ffffff" d="M312.46 276.734H199.54c-8.512 0-15.435 6.923-15.435 15.434v34.634c0 8.51 6.923 15.435 15.434 15.435h112.92c8.51 0 15.43-6.923 15.43-15.435v-34.634c0-8.51-6.925-15.434-15.436-15.434zm-4.41 45.66h-104.1V296.58h104.1v25.812z"/><path  fill="#ffffff" d="M506.976 190.958l.16-.08L432.73 43.774c-6.015-11.89-18.025-19.275-31.346-19.275h-14.14V10.82c0-5.48-4.443-9.922-9.923-9.922H134.68c-5.48 0-9.922 4.443-9.922 9.923V24.5h-14.14c-13.322 0-25.332 7.384-31.347 19.274L4.87 190.878l.16.08C1.838 196.208 0 202.363 0 208.938v155.41c0 19.162 15.59 34.75 34.752 34.75H477.25c19.16 0 34.75-15.59 34.75-34.75v-155.41c0-6.575-1.837-12.73-5.024-17.98zM387.242 46.548h14.14c4.96 0 9.43 2.75 11.672 7.18l60.93 120.46h-41.43v-37.065c0-5.48-4.443-9.922-9.923-9.922h-12.27V73.98c0-5.48-4.44-9.922-9.92-9.922h-13.19v-17.51zm25.468 100.496v27.144h-52.36c-8.983 0-17.173 5.293-20.864 13.482l-14.296 31.71c-.136.3-.435.493-.764.493h-136.85c-.33 0-.63-.194-.765-.494l-14.29-31.71c-3.69-8.19-11.88-13.488-20.864-13.488H99.29V147.04h313.42zM144.602 20.746h222.796V64.05H144.602V20.747zm245.91 63.15V127.2H121.488V83.895h269.024zM98.946 53.726c2.24-4.43 6.712-7.18 11.67-7.18h14.142V64.05h-13.192c-5.48 0-9.922 4.443-9.922 9.923V127.2H89.37c-5.48 0-9.923 4.442-9.923 9.922v37.066h-41.43l60.93-120.46zM477.25 377.05H34.75c-7.004 0-12.703-5.7-12.703-12.702v-155.41c0-7.002 5.697-12.7 12.702-12.7h116.9c.323 0 .63.194.76.495l14.295 31.708c3.69 8.19 11.88 13.488 20.864 13.488h136.85c8.984 0 17.174-5.292 20.865-13.48l14.295-31.71c.138-.3.437-.494.766-.494h116.897c7.004 0 12.7 5.7 12.7 12.7v155.41h.002c0 7.004-5.698 12.7-12.7 12.7z"/></svg>
