<svg xmlns="http://www.w3.org/2000/svg" width="1210" height="767"><path d="M899.077 228.952c-21.522-24.694-53.215-40.302-88.55-40.302-64.854 0-117.425 52.572-117.425 117.425S745.672 423.5 810.527 423.5c35.335 0 67.028-15.608 88.55-40.302 21.52 24.694 53.214 40.302 88.55 40.302 64.853 0 117.425-52.572 117.425-117.425S1052.48 188.65 987.627 188.65c-35.336 0-67.03 15.608-88.55 40.302zm284.507-28.367c79.695 219.45-33.495 462-252.56 540.925-40.04 14.63-81.235 22.715-121.66 25.025 56.595-42.35 100.87-98.175 129.745-160.93-138.99 19.25-277.59-60.06-327.64-197.505-50.05-137.445 5-287.21 123.97-361.9 8.85-5.775 17.71-10.78 28.1-15.785 4.234-1.925 8.854-3.85 13.09-5.775.77-.385 1.154-.385 1.924-.77l15.015-5.775c25.03-8.855 50.44-14.63 75.85-16.94C879.05.385 888.29 0 898.3 0c99.33 0 193.654 49.28 250.634 132.055l8.085 12.705c5.39 8.855 10.01 17.71 14.63 26.95 4.23 9.24 8.47 18.865 11.93 28.875zM810.527 365.75c32.956 0 59.675-26.72 59.675-59.675 0-32.956-26.72-59.675-59.675-59.675-32.956 0-59.675 26.72-59.675 59.675 0 32.956 26.72 59.675 59.675 59.675zm184.8 0c-32.956 0-59.675-26.72-59.675-59.675 0-32.956 26.72-59.675 59.675-59.675 32.956 0 59.675 26.72 59.675 59.675 0 32.956-26.72 59.675-59.675 59.675zm-626.433-54.91l-.21.153c67.275 0 121.943 54.9 121.943 122.43s-54.668 122.39-121.848 122.39h-58.91c-6.856 0-12.4-5.562-12.4-12.434 0-6.88 5.543-12.46 12.415-12.46h59.02c53.53 0 97.093-43.74 97.093-97.54 0-53.9-43.58-97.6-97.093-97.6H34.59l70.3 79.116c4.542 5.2 4.1 13.09-1 17.52-2.37 2.116-5.314 3.156-8.28 3.156-3.386 0-6.774-1.407-9.238-4.14L7.22 342.312c-9.626-10.837-9.626-27.2 0-38.057l79.152-89.09c4.562-5.14 12.396-5.58 17.517-1 5.1 4.562 5.54 12.436 1 17.556l-70.3 79.12h334.3z"/></svg>