<svg xmlns="http://www.w3.org/2000/svg" width="170" height="25"><path fill="#FFF" fill-rule="evenodd" d="M34.325 1.46h12.67c2.777 0 4.895.776 6.353 2.328 1.458 1.55 2.187 3.587 2.187 6.107 0 1.447-.367 2.747-1.102 3.902-.735 1.156-1.698 2.13-2.888 2.923.444.303.76.688.945 1.155L55.15 24h-8.82l-2.205-5.005c-.116-.28-.245-.472-.385-.578-.14-.105-.338-.157-.595-.157h-.35V24h-8.47V1.46zM44.86 11.645c1.377 0 2.065-.583 2.065-1.75 0-.63-.157-1.09-.472-1.383-.315-.29-.8-.437-1.453-.437h-2.205v3.57h2.065zm11.778 11.34c-1.085-.91-1.628-2.298-1.628-4.165 0-3.78 2.404-5.67 7.21-5.67h3.71v-.175c0-.28-.256-.513-.77-.7-.513-.187-1.248-.28-2.205-.28-.91 0-1.884.076-2.922.228-1.038.15-2.013.367-2.923.647V8.32c.887-.373 2.036-.677 3.448-.91 1.412-.233 2.77-.35 4.077-.35 2.87 0 5.145.59 6.825 1.768 1.68 1.178 2.52 2.934 2.52 5.267V24h-7.42l-.35-1.19c-1.26 1.027-3.045 1.54-5.355 1.54-1.726 0-3.132-.455-4.217-1.365zm9.292-4.025v-1.54h-1.54c-.56 0-.962.087-1.207.262-.245.176-.368.473-.368.893 0 .77.41 1.155 1.225 1.155.747 0 1.377-.257 1.89-.77zM76.255 7.41H84.2l.175.945c.654-.35 1.505-.653 2.555-.91 1.05-.257 2.147-.385 3.29-.385 1.96 0 3.395.513 4.305 1.54.91 1.027 1.365 2.602 1.365 4.725V24h-8.47v-9.59c0-.747-.385-1.12-1.155-1.12-.256 0-.536.07-.84.21-.303.14-.536.303-.7.49V24h-8.47V7.41zm21.21 8.82c0-3.01.74-5.29 2.223-6.843 1.482-1.55 3.46-2.327 5.932-2.327.607 0 1.25.058 1.925.175.677.117 1.237.268 1.68.455V.41h8.47V24h-7.35l-.385-1.085c-.653.467-1.353.822-2.1 1.068-.746.245-1.598.367-2.555.367-5.226 0-7.84-2.707-7.84-8.12zm11.078 1.942c.222-.08.45-.215.682-.402v-4.13c-.233-.187-.46-.32-.682-.402-.222-.082-.484-.123-.788-.123-.513 0-.915.262-1.207.787-.292.526-.438 1.278-.438 2.258 0 .91.13 1.493.385 1.75.257.257.677.385 1.26.385.304 0 .566-.04.788-.123zm10.377-2.467c0-5.763 3.477-8.645 10.43-8.645 6.977 0 10.465 2.882 10.465 8.645s-3.488 8.645-10.465 8.645c-6.953 0-10.43-2.882-10.43-8.645zm11.813 2.013c.292-.386.437-1.056.437-2.013 0-.957-.145-1.627-.437-2.012-.292-.386-.753-.578-1.383-.578-.606 0-1.055.192-1.347.578-.292.385-.438 1.055-.438 2.012 0 .957.146 1.627.438 2.013.292.385.74.577 1.347.577.63 0 1.09-.192 1.383-.578zM141.565 7.41h7.84l.175 1.015c1.61-.91 3.314-1.365 5.11-1.365.957 0 1.72.122 2.293.368.572.245 1.056.635 1.452 1.172.794-.513 1.645-.898 2.555-1.155.91-.257 1.937-.385 3.08-.385 1.96 0 3.39.513 4.288 1.54.898 1.027 1.347 2.602 1.347 4.725V24h-8.295v-9.66c0-.373-.07-.642-.21-.805-.14-.163-.396-.245-.77-.245-.373 0-.7.152-.98.455V24h-7.805v-9.87c0-.303-.058-.52-.175-.648-.116-.128-.315-.192-.595-.192-.443 0-.84.21-1.19.63V24h-8.12V7.41zM0 1h23v23H0V1zm5.75 8.118c1.308 0 2.368-1.06 2.368-2.368 0-1.308-1.06-2.368-2.368-2.368-1.308 0-2.368 1.06-2.368 2.368 0 1.308 1.06 2.368 2.368 2.368zm0 11.5c1.308 0 2.368-1.06 2.368-2.368 0-1.308-1.06-2.368-2.368-2.368-1.308 0-2.368 1.06-2.368 2.368 0 1.308 1.06 2.368 2.368 2.368zm11.5-11.5c1.308 0 2.368-1.06 2.368-2.368 0-1.308-1.06-2.368-2.368-2.368-1.308 0-2.368 1.06-2.368 2.368 0 1.308 1.06 2.368 2.368 2.368zm0 11.5c1.308 0 2.368-1.06 2.368-2.368 0-1.308-1.06-2.368-2.368-2.368-1.308 0-2.368 1.06-2.368 2.368 0 1.308 1.06 2.368 2.368 2.368zm-5.412-5.412c1.308 0 2.368-1.06 2.368-2.368 0-1.307-1.06-2.367-2.368-2.367-1.307 0-2.367 1.06-2.367 2.37s1.06 2.37 2.37 2.37v-.002z"/></svg>