<svg xmlns="http://www.w3.org/2000/svg" viewBox="0 0 512 512"><path fill="#FFF" d="M489.396 44.856H22.604C10.14 44.856 0 54.996 0 67.46v377.08c0 12.464 10.14 22.604 22.604 22.604h466.792c12.464 0 22.604-10.14 22.604-22.604V67.46c0-12.464-10.14-22.604-22.604-22.604zm0 399.684l-466.79.015s-.002-.005-.002-.015V67.46h466.792v377.08z"/><path fill="#FFF" d="M446.975 98.58H65.025c-6.242 0-11.303 5.06-11.303 11.302v249.8c0 6.24 5.06 11.3 11.302 11.3h381.95c6.24 0 11.302-5.06 11.302-11.3v-249.8c0-6.24-5.06-11.302-11.3-11.302zm-370.65 22.604h359.347v191.334l-71.228-71.22c-4.412-4.412-11.568-4.412-15.983 0l-43.42 43.42-99.56-99.56c-4.41-4.41-11.57-4.41-15.98 0L76.328 298.32V121.185zm0 227.194v-18.095l121.163-121.15 139.244 139.245H76.326zm359.35 0H368.7l-47.675-47.676 35.43-35.43 76.62 76.612c.79.788 1.667 1.43 2.598 1.936v4.56z"/><path fill="#FFF" d="M304.345 142.63c-23.56 0-42.73 19.167-42.73 42.728s19.17 42.73 42.73 42.73 42.73-19.17 42.73-42.73-19.17-42.73-42.73-42.73zm0 62.853c-11.098 0-20.125-9.027-20.125-20.125 0-11.097 9.028-20.124 20.125-20.124 11.096 0 20.124 9.027 20.124 20.124 0 11.098-9.03 20.125-20.128 20.125zM163.332 396.458H65.024c-6.24 0-11.302 5.06-11.302 11.302s5.06 11.302 11.302 11.302h98.308c6.242 0 11.302-5.06 11.302-11.302 0-6.24-5.06-11.302-11.302-11.302zm77.358 0h-25.786c-6.24 0-11.302 5.06-11.302 11.302 0 6.24 5.06 11.302 11.302 11.302h25.785c6.24 0 11.3-5.06 11.3-11.302 0-6.24-5.06-11.302-11.3-11.302z"/></svg>