<svg xmlns="http://www.w3.org/2000/svg" width="512" height="512"><path d="M57.318 166.155H12.746C5.906 166.155.36 171.7.36 178.54c0 6.842 5.545 12.387 12.386 12.387h44.57c6.843 0 12.388-5.545 12.388-12.386 0-6.84-5.545-12.382-12.386-12.382zm441.932 0h-44.57c-6.84 0-12.387 5.545-12.387 12.386 0 6.845 5.546 12.39 12.386 12.39h44.57c6.84 0 12.384-5.545 12.384-12.386 0-6.84-5.546-12.385-12.386-12.385zM108.347 326.19c-4.837-4.836-12.68-4.836-17.517 0l-32.42 32.42c-4.837 4.838-4.837 12.68 0 17.518 2.42 2.42 5.59 3.628 8.758 3.628 3.17 0 6.34-1.21 8.758-3.628l32.42-32.42c4.838-4.836 4.838-12.68 0-17.517zM430.912 3.628c-4.838-4.837-12.678-4.837-17.517 0L381.863 35.16c-4.837 4.837-4.837 12.68 0 17.516 2.42 2.417 5.59 3.627 8.76 3.627s6.338-1.21 8.757-3.628l31.53-31.53c4.838-4.838 4.838-12.68.002-17.517zM130.117 35.142L98.602 3.628c-4.837-4.835-12.68-4.835-17.517 0-4.837 4.837-4.837 12.68 0 17.517L112.6 52.66c2.42 2.418 5.59 3.628 8.758 3.628 3.17 0 6.34-1.21 8.758-3.628 4.837-4.837 4.837-12.68 0-17.518zm323.468 323.473l-32.3-32.303c-4.838-4.837-12.678-4.837-17.517 0-4.837 4.838-4.837 12.68 0 17.517l32.3 32.3c2.42 2.42 5.59 3.625 8.76 3.625s6.338-1.21 8.757-3.628c4.837-4.837 4.837-12.68 0-17.516zM256 33.635c-85.65 0-155.328 72.886-155.328 162.475 0 41.65 14.92 86.482 40.933 123 19.98 28.045 30.538 59.25 30.538 90.24v77.875c0 13.66 11.113 24.772 24.772 24.772h118.17c13.658 0 24.77-11.113 24.77-24.772V409.35c0-30.99 10.56-62.195 30.537-90.24 26.014-36.517 40.934-81.35 40.934-123-.002-89.59-69.68-162.474-155.327-162.474zm59.082 453.59h-118.17v-16.2H256c6.84 0 12.387-5.544 12.387-12.385 0-6.84-5.546-12.386-12.387-12.386h-59.085v-16.2h118.172l.014 57.17c0 .003-.004.003-.015.003zM238.63 256.143l-16.565-35.386h67.866l-16.56 35.387c-.65 1.394-1.04 2.897-1.14 4.43l-9.605 144.712h-13.247l-9.605-144.71c-.1-1.535-.49-3.038-1.14-4.43zm111.585 48.598c-22.123 31.058-34.208 65.735-35.082 100.546H287.45l9.34-140.75 23.83-50.914c1.797-3.835 1.508-8.324-.766-11.9-2.273-3.57-6.215-5.736-10.45-5.736H202.59c-4.236 0-8.177 2.166-10.45 5.74-2.274 3.572-2.564 8.06-.768 11.897l23.832 50.916 9.34 140.75H196.86c-.874-34.814-12.958-69.49-35.08-100.546-22.756-31.94-36.34-72.55-36.34-108.627 0-75.93 58.567-137.703 130.555-137.703s130.555 61.77 130.555 137.7c.003 36.08-13.58 76.688-36.335 108.63z"/></svg>