<svg xmlns="http://www.w3.org/2000/svg" width="161" height="200"><path d="M79.5 59.468C73.91 53.054 65.678 49 56.5 49 39.655 49 26 62.655 26 79.5S39.655 110 56.5 110c9.178 0 17.41-4.054 23-10.468 5.59 6.414 13.822 10.468 23 10.468 16.845 0 30.5-13.655 30.5-30.5S119.345 49 102.5 49c-9.178 0-17.41 4.054-23 10.468zm73.898-7.368c20.7 57-8.7 120-65.6 140.5-10.4 3.8-21.1 5.9-31.6 6.5 14.7-11 26.2-25.5 33.7-41.8-36.1 5-72.1-15.6-85.1-51.3-13-35.7 1.3-74.6 32.2-94 2.3-1.5 4.6-2.8 7.3-4.1 1.1-.5 2.3-1 3.4-1.5.2-.1.3-.1.5-.2l3.9-1.5c6.5-2.3 13.1-3.8 19.7-4.4 2.5-.2 4.9-.3 7.5-.3 25.8 0 50.3 12.8 65.1 34.3l2.1 3.3c1.4 2.3 2.6 4.6 3.8 7 1.1 2.4 2.2 4.9 3.1 7.5zM56.5 95C65.06 95 72 88.06 72 79.5 72 70.94 65.06 64 56.5 64 47.94 64 41 70.94 41 79.5 41 88.06 47.94 95 56.5 95zm48 0c8.56 0 15.5-6.94 15.5-15.5 0-8.56-6.94-15.5-15.5-15.5C95.94 64 89 70.94 89 79.5c0 8.56 6.94 15.5 15.5 15.5z"/></svg>
