<svg xmlns="http://www.w3.org/2000/svg" width="161" height="25"><path fill="#FFF" fill-rule="evenodd" d="M0 4.26h6.81l.15.81c.56-.3 1.29-.56 2.19-.78.9-.22 1.84-.33 2.82-.33 1.68 0 2.91.44 3.69 1.32.78.88 1.17 2.23 1.17 4.05v9.15H9.57v-8.22c0-.64-.33-.96-.99-.96-.22 0-.46.06-.72.18-.26.12-.46.26-.6.42v8.58H0V4.26zm22.135 13.665c-1.34-.57-2.39-1.405-3.15-2.505-.76-1.1-1.14-2.43-1.14-3.99 0-2.32.69-4.145 2.07-5.475s3.38-1.995 6-1.995c2.46 0 4.415.605 5.865 1.815 1.45 1.21 2.175 2.915 2.175 5.115v2.43h-9.48c.64.8 2.03 1.2 4.17 1.2.84 0 1.685-.07 2.535-.21.85-.14 1.535-.31 2.055-.51v3.9c-1.5.72-3.68 1.08-6.54 1.08-1.7 0-3.22-.285-4.56-.855zm5.61-8.235v-.27c0-.34-.125-.62-.375-.84-.25-.22-.655-.33-1.215-.33-.58 0-1.005.13-1.275.39s-.405.61-.405 1.05h3.27zm12.326 1.56l-5.31-6.99h7.83L44 6.12l1.41-1.86h7.83l-5.31 6.99 5.55 7.23h-7.92L44 16.44l-1.56 2.04h-7.92l5.55-7.23zm14.337 1.65V9.48h-1.71V4.26h1.71V1.47L61.667 0v4.26h2.91l-.15 5.22h-2.76v3.03c0 .84.47 1.26 1.41 1.26.62 0 1.22-.1 1.8-.3v4.5c-1.26.54-2.73.81-4.41.81-4.04 0-6.06-1.96-6.06-5.88zm19.7-8.64h6.3l.33.93c.56-.4 1.16-.705 1.8-.915.64-.21 1.37-.315 2.19-.315 2.2 0 3.87.585 5.01 1.755 1.14 1.17 1.71 2.995 1.71 5.475 0 2.5-.61 4.39-1.83 5.67-1.22 1.28-2.94 1.92-5.16 1.92-.52 0-1.07-.05-1.65-.15-.58-.1-1.06-.23-1.44-.39v6.24h-7.26V4.26zm9.57 8.79c.24-.36.36-.95.36-1.77 0-.8-.114-1.355-.344-1.665-.23-.31-.585-.465-1.065-.465-.26 0-.485.035-.675.105-.19.07-.385.185-.585.345v3.54c.2.16.395.275.585.345.19.07.415.105.675.105.46 0 .81-.18 1.05-.54zm9.73 4.56c-.93-.78-1.394-1.97-1.394-3.57 0-3.24 2.06-4.86 6.18-4.86h3.18v-.15c0-.24-.22-.44-.66-.6-.44-.16-1.07-.24-1.89-.24-.78 0-1.615.065-2.505.195-.89.13-1.725.315-2.505.555v-3.9c.76-.32 1.745-.58 2.955-.78 1.21-.2 2.375-.3 3.495-.3 2.46 0 4.41.505 5.85 1.515 1.44 1.01 2.16 2.515 2.16 4.515v8.49h-6.36l-.3-1.02c-1.08.88-2.61 1.32-4.59 1.32-1.48 0-2.685-.39-3.615-1.17zm7.966-3.45v-1.32h-1.32c-.48 0-.825.075-1.035.225-.21.15-.315.405-.315.765 0 .66.35.99 1.05.99.64 0 1.18-.22 1.62-.66zm11.366 9.42c-1.32-.12-2.3-.3-2.94-.54V18.9c.74.24 1.704.425 2.894.555 1.19.13 2.335.195 3.435.195 1.92 0 2.88-.16 2.88-.48 0-.14-.1-.23-.3-.27-.2-.04-.52-.06-.96-.06h-3.42c-1.68 0-2.94-.225-3.78-.675-.84-.45-1.26-1.155-1.26-2.115 0-.68.21-1.26.63-1.74.42-.48 1-.83 1.74-1.05-.82-.42-1.406-.93-1.756-1.53-.35-.6-.525-1.39-.525-2.37 0-1.82.664-3.175 1.994-4.065 1.33-.89 3.255-1.335 5.775-1.335.5 0 1.1.035 1.8.105.7.07 1.21.135 1.53.195h5.79l-.12 4.29h-1.56c.12.32.18.62.18.9 0 1.52-.41 2.68-1.23 3.48-.82.8-2.12 1.2-3.9 1.2-.46 0-.97-.02-1.53-.06-.74.04-1.11.22-1.11.54 0 .16.064.265.194.315.13.05.325.075.585.075h2.52c1.54 0 2.744.335 3.614 1.005.87.67 1.305 1.685 1.305 3.045 0 1.46-.706 2.61-2.116 3.45-1.41.84-3.585 1.26-6.525 1.26-1.24 0-2.52-.06-3.84-.18zm5.61-13.62c.22-.18.33-.48.33-.9 0-.44-.116-.755-.346-.945-.23-.19-.605-.285-1.125-.285s-.896.095-1.126.285c-.23.19-.345.505-.345.945 0 .42.11.72.33.9.22.18.6.27 1.14.27.54 0 .92-.09 1.14-.27zm12.474 7.965c-1.34-.57-2.39-1.405-3.15-2.505-.76-1.1-1.14-2.43-1.14-3.99 0-2.32.69-4.145 2.07-5.475s3.38-1.995 6-1.995c2.46 0 4.415.605 5.865 1.815 1.45 1.21 2.174 2.915 2.174 5.115v2.43h-9.48c.64.8 2.03 1.2 4.17 1.2.84 0 1.685-.07 2.535-.21.85-.14 1.534-.31 2.054-.51v3.9c-1.5.72-3.68 1.08-6.54 1.08-1.7 0-3.22-.285-4.56-.855zm5.61-8.235v-.27c0-.34-.125-.62-.375-.84-.25-.22-.656-.33-1.216-.33-.58 0-1.005.13-1.275.39s-.406.61-.406 1.05h3.27zm23.986 2.2l-8.47 7.41V4.48l8.47 7.41z"/></svg>