<svg xmlns="http://www.w3.org/2000/svg" width="27" height="15"><g fill="#FFF"><path d="M26.058 6.262C24.575 4.37 22.653 2.804 20.5 1.735 18.305.643 15.94.077 13.475.047h-.41C10.6.077 8.235.643 6.04 1.735 3.886 2.805 1.964 4.37.48 6.262c-.57.73-.57 1.747 0 2.476 1.484 1.893 3.406 3.458 5.558 4.527 2.196 1.092 4.56 1.658 7.027 1.688h.41c2.466-.03 4.83-.596 7.026-1.688 2.155-1.07 4.077-2.634 5.56-4.527.57-.73.57-1.747 0-2.476zm-19.54 6.046c-2.01-.998-3.804-2.46-5.19-4.228-.268-.34-.268-.82 0-1.16 1.386-1.768 3.18-3.23 5.19-4.228.57-.284 1.154-.53 1.747-.736C6.738 3.322 5.775 5.3 5.775 7.5c0 2.2.963 4.18 2.49 5.544-.593-.207-1.176-.452-1.747-.736zm6.75 1.577C9.73 13.885 6.85 11.02 6.85 7.5c0-3.52 2.88-6.385 6.42-6.385S19.69 3.98 19.69 7.5c0 3.52-2.88 6.385-6.418 6.385zM25.21 8.08c-1.385 1.768-3.18 3.23-5.19 4.228-.57.283-1.152.527-1.745.735 1.526-1.366 2.488-3.345 2.488-5.543 0-2.2-.963-4.18-2.49-5.545.594.208 1.177.453 1.747.737 2.01.998 3.805 2.46 5.19 4.228.268.34.268.82 0 1.16z"/><path d="M13.27 4.767c-1.515 0-2.747 1.226-2.747 2.733 0 1.507 1.232 2.733 2.746 2.733s2.744-1.226 2.744-2.733c0-1.507-1.232-2.733-2.747-2.733zm0 4.396c-.922 0-1.672-.746-1.672-1.663s.75-1.663 1.67-1.663c.923 0 1.672.746 1.672 1.663s-.75 1.663-1.67 1.663z"/></g></svg>