<svg xmlns="http://www.w3.org/2000/svg" width="512" height="426"><path fill="#ffffff" d="M498.723 46.435H183.17V33.958c0-18.3-14.887-33.188-33.187-33.188h-51.5c-18.3 0-33.188 14.888-33.188 33.188v12.477h-52.02C5.943 46.435 0 52.38 0 59.71c0 7.332 5.943 13.276 13.275 13.276h52.018V85.46c0 18.3 14.888 33.187 33.188 33.187h51.504c18.3 0 33.188-14.888 33.188-33.188V72.983h315.554c7.332 0 13.275-5.945 13.275-13.275s-5.943-13.276-13.275-13.276zM156.62 85.46c0 3.66-2.977 6.637-6.637 6.637h-51.5c-3.66 0-6.64-2.978-6.64-6.638V33.955c0-3.66 2.98-6.638 6.64-6.638h51.5c3.66 0 6.638 2.977 6.638 6.637v51.5zm342.105 108.835h-52.02v-12.48c0-18.3-14.887-33.19-33.187-33.19h-51.5c-18.3 0-33.19 14.89-33.19 33.19v12.48H13.276C5.943 194.295 0 200.24 0 207.57s5.943 13.275 13.275 13.275h315.553v12.47c0 18.3 14.888 33.187 33.188 33.187h51.5c18.3 0 33.19-14.888 33.19-33.188v-12.47h52.018c7.332 0 13.275-5.944 13.275-13.274 0-7.33-5.945-13.275-13.277-13.275zm-78.57 39.02c0 3.66-2.978 6.638-6.638 6.638h-51.5c-3.66 0-6.64-2.978-6.64-6.638v-51.5c0-3.66 2.98-6.64 6.64-6.64h51.5c3.66 0 6.638 2.98 6.638 6.64v51.5zm78.57 119.7H276.432V340.54c0-18.3-14.888-33.187-33.188-33.187h-51.5c-18.3 0-33.19 14.888-33.19 33.188v12.476H13.274C5.944 353.016 0 358.96 0 366.29s5.943 13.274 13.275 13.274h145.28v12.477c0 18.3 14.887 33.19 33.187 33.19h51.5c18.3 0 33.19-14.89 33.19-33.19v-12.474h222.292c7.332 0 13.275-5.945 13.275-13.275 0-7.332-5.945-13.275-13.277-13.275zM249.88 392.04c0 3.66-2.977 6.638-6.637 6.638h-51.5c-3.66 0-6.64-2.978-6.64-6.638v-51.5c0-3.66 2.98-6.64 6.64-6.64h51.5c3.66 0 6.638 2.98 6.638 6.64v51.5z"/></svg>
