<svg xmlns="http://www.w3.org/2000/svg" width="512" height="506"><path fill="#42CA73" d="M472.208 198.712c9.27-9.037 12.544-22.3 8.544-34.613-4-12.32-14.445-21.12-27.257-22.98l-112.03-16.28c-2.2-.32-4.1-1.7-5.084-3.7l-50.1-101.51C280.55 8.02 268.95.81 256.01.81c-12.947 0-24.55 7.212-30.278 18.822l-50.1 101.516c-.987 1.993-2.887 3.374-5.087 3.694L58.51 141.12c-12.812 1.86-23.255 10.666-27.257 22.98-4.002 12.312-.728 25.575 8.544 34.612l81.065 79.02c1.59 1.55 2.318 3.786 1.942 5.977l-19.137 111.57c-2.188 12.76 2.958 25.41 13.432 33.02 10.47 7.61 24.1 8.59 35.56 2.57l100.2-52.68c1.96-1.04 4.31-1.04 6.28 0l100.2 52.68c4.98 2.62 10.37 3.91 15.74 3.91 6.97 0 13.89-2.19 19.81-6.49 10.47-7.61 15.62-20.27 13.43-33.03L389.2 283.71c-.375-2.19.35-4.426 1.942-5.978l81.066-79.018zm-109.63 89.564l19.138 111.578c.64 3.734-1.665 5.863-2.686 6.604-1.022.74-3.76 2.277-7.112.513L271.716 354.3c-4.92-2.585-10.315-3.88-15.712-3.88s-10.794 1.295-15.712 3.88l-100.2 52.677c-3.355 1.763-6.092.228-7.113-.513-1.03-.74-3.33-2.87-2.69-6.604l19.13-111.576c1.88-10.957-1.75-22.13-9.71-29.888L58.65 179.37c-2.712-2.644-2.1-5.72-1.707-6.92.39-1.2 1.702-4.053 5.45-4.597l112.028-16.28c11-1.597 20.51-8.5 25.43-18.47l50.1-101.516c1.68-3.397 4.8-3.764 6.06-3.764 1.26 0 4.38.366 6.06 3.764l50.1 101.517c4.92 9.97 14.43 16.873 25.42 18.47l112.03 16.28c3.75.544 5.06 3.395 5.45 4.596.39 1.2 1.01 4.277-1.71 6.92l-81.06 79.02c-7.96 7.758-11.59 18.93-9.71 29.885zm51.205-268.65c-6.036-4.385-14.48-3.047-18.865 2.987L380.58 42.345c-4.383 6.034-3.046 14.48 2.99 18.865 2.398 1.74 5.175 2.58 7.927 2.58 4.177 0 8.295-1.93 10.937-5.567L416.77 38.49c4.385-6.034 3.048-14.48-2.987-18.865zM131.36 42.266L117.023 22.53c-4.383-6.032-12.83-7.37-18.865-2.988-6.034 4.384-7.372 12.83-2.988 18.865l14.337 19.73c2.643 3.64 6.76 5.57 10.94 5.57 2.752 0 5.53-.84 7.926-2.58 6.034-4.384 7.372-12.83 2.987-18.866zM49.552 303.83c-2.305-7.094-9.924-10.977-17.02-8.672l-23.196 7.538C2.24 305-1.64 312.622.666 319.716c1.853 5.708 7.148 9.336 12.84 9.336 1.384 0 2.79-.215 4.178-.666l23.197-7.538c7.1-2.305 10.98-9.924 8.68-17.02zm206.453 149.956c-7.46 0-13.506 6.047-13.506 13.506v24.392c0 7.46 6.04 13.506 13.5 13.506s13.5-6.047 13.5-13.506v-24.392c0-7.46-6.05-13.506-13.51-13.506zm246.66-151.07l-23.198-7.54c-7.092-2.302-14.714 1.578-17.02 8.673-2.304 7.09 1.577 14.71 8.672 17.01l23.19 7.54c1.38.45 2.79.66 4.17.66 5.69 0 10.99-3.63 12.84-9.34 2.3-7.1-1.58-14.72-8.67-17.02z"/></svg>
