<svg xmlns="http://www.w3.org/2000/svg" width="30" height="30"><path fill-rule="evenodd" d="M15 30C6.716 30 0 23.284 0 15 0 6.716 6.716 0 15 0c8.284 0 15 6.716 15 15 0 8.284-6.716 15-15 15zM7.896 12.09c-.102.272.047.444 0 1.478-.013.278-1.198 1.537-1.668 2.844-.466 1.297-.53 2.65.19 3.184.72.532 1.39-1.773 1.478-1.437.038.14.086.292.143.45.23.63.612 1.322 1.173 1.972.114.132-.694.375-1.18 1.21-.483.833.14 2.35 2.55 2.35 3.107 0 3.802-1.107 3.865-1.102.232.02.25 0 .493 0 .3 0 .177.025.456 0 .15-.012 1.66 1.325 3.75 1.1 3.564-.377 3.02-1.585 2.74-2.35-.292-.794-1.324-1.167-1.28-1.22.855-.952.99-1.54 1.28-2.415.12-.362.946 1.982 1.583 1.436.265-.226.796-1.173.265-3.182-.53-2.01-1.558-2.468-1.536-2.845.046-.784.02-1.335-.02-1.477-.19-.69-.586-.538-.586-.69 0-3.977-2.956-7.2-6.6-7.2-3.646 0-6.6 3.223-6.6 7.2 0 .315-.278.08-.505.69z"/></svg>