<svg xmlns="http://www.w3.org/2000/svg" width="30" height="30"><path fill-rule="evenodd" d="M19.17 12.605C18.845 9.575 15.893 7.2 12.3 7.2c-3.81 0-6.9 2.67-6.9 5.963 0 1.967 1.102 3.712 2.802 4.798.19.13-.632 1.84-.427 1.94.344.18 1.727-1.27 2.106-1.15.76.25 1.57.38 2.42.38.43 0 .85-.03 1.25-.1.8 1.83 2.9 3.13 5.35 3.13.67 0 1.32-.1 1.92-.273.198-.06 1.527 1.11 1.71 1.035.3-.123-.55-1.502-.28-1.665 1.43-.87 2.358-2.28 2.358-3.87 0-2.564-2.406-4.655-5.43-4.774zm-1.203.06c-2.704.372-4.767 2.34-4.767 4.713 0 .176.01.35.034.522-.304.042-.616.064-.934.064-.796 0-1.553-.137-2.24-.384-.07-.025-.315-.1-.447 0-.298.22-.697.68-.697.68s.146-.334.195-.822c.03-.224-.31-.38-.38-.426-1.293-.877-2.122-2.325-2.122-3.83 0-2.64 2.553-4.782 5.7-4.782 2.94 0 5.36 1.866 5.668 4.264zM15 30C6.716 30 0 23.284 0 15 0 6.716 6.716 0 15 0c8.284 0 15 6.716 15 15 0 8.284-6.716 15-15 15zM9.9 12c.497 0 .9-.403.9-.9s-.403-.9-.9-.9-.9.403-.9.9.403.9.9.9zm4.8 0c.497 0 .9-.403.9-.9s-.403-.9-.9-.9-.9.403-.9.9.403.9.9.9zm2.1 4.2c-.33 0-.6-.27-.6-.6 0-.33.27-.6.6-.6.33 0 .6.27.6.6 0 .33-.27.6-.6.6zm3.6 0c-.33 0-.6-.27-.6-.6 0-.33.27-.6.6-.6.33 0 .6.27.6.6 0 .33-.27.6-.6.6z"/></svg>