<svg xmlns="http://www.w3.org/2000/svg" width="30" height="30"><path fill-rule="evenodd" d="M15 30C6.716 30 0 23.284 0 15 0 6.716 6.716 0 15 0c8.284 0 15 6.716 15 15 0 8.284-6.716 15-15 15zm-1.5-7.2c5.136 0 9.26-2.686 9.26-6 0-2.8-3.506-2.8-3.506-2.98 0-.18 1.746-1.807 0-2.82-1.745-1.01-4.94.527-4.843.362 1.38-2.362-.58-3.108-1.59-3.108-2.38 0-8.62 5.232-8.62 8.546 0 3.314 4.17 6 9.3 6zm.243-1.838c-3.282.46-6.185-.894-6.485-3.027-.3-2.133 2.118-4.236 5.4-4.697 3.28-.46 6.184.894 6.484 3.027.3 2.133-2.118 4.236-5.4 4.697zm-.607-.58c1.952-.38 3.278-2.006 2.962-3.633-.316-1.63-2.155-2.64-4.107-2.26-1.95.38-3.27 2-2.96 3.63.32 1.62 2.16 2.63 4.11 2.26zM13.2 17.4c-.33 0-.6-.27-.6-.6 0-.33.27-.6.6-.6.33 0 .6.27.6.6 0 .33-.27.6-.6.6zm-1.384 1.37c-.6.28-1.257.14-1.467-.31-.21-.45.1-1.043.7-1.323s1.26-.142 1.47.31c.21.45-.11 1.042-.71 1.322zm9.715-9.215c-1.08-.976-1.94-.645-1.94-.645-.54.05-.99.53-.99 1.09v-.975c0 .552.45.98 1 1.007 0 0 .63-.188 1.21.5.58.686.24 1.248.24 1.248-.13.528.226.956.766.956h-.73c.55 0 1.078-.447 1.128-.994 0 0 .41-1.21-.672-2.187zm2.03-1.95c-1.99-1.88-4.06-1.572-4.06-1.572-.83-.018-1.5.637-1.5 1.465V6.105c0 .828.68 1.476 1.51 1.514 0 0 1.95-.34 3.148 1.38 1.192 1.71.734 3.01.734 3.01-.086.812.51 1.48 1.348 1.48h-1.42c.832 0 1.588-.66 1.633-1.5 0 0 .596-2.518-1.392-4.397z"/></svg>