<svg xmlns="http://www.w3.org/2000/svg" width="32" height="27"><path fill-rule="evenodd" d="M13.582 19.713c-.675.107-1.37.163-2.082.163-1.42 0-2.777-.222-4.032-.628-.63-.204-2.937 2.21-3.51 1.918-.34-.174 1.03-3.03.713-3.23-2.83-1.81-4.67-4.72-4.67-8C0 4.45 5.15 0 11.5 0c5.99 0 10.908 3.956 11.45 9.01 5.038.196 9.05 3.682 9.05 7.953 0 2.653-1.547 5.002-3.927 6.45-.448.272.97 2.57.468 2.775-.305.126-2.52-1.82-2.85-1.722-.995.298-2.07.46-3.19.46-4.09 0-7.58-2.17-8.915-5.213zm-.526-1.88c-.506.07-1.026.107-1.556.107-1.326 0-2.59-.228-3.736-.64-.114-.04-.522-.164-.742 0-.496.37-1.162 1.135-1.162 1.135s.244-.558.326-1.372c.037-.372-.53-.633-.644-.71C3.382 14.893 2 12.48 2 9.97 2 5.568 6.253 2 11.5 2c4.9 0 8.932 3.11 9.445 7.106C16.438 9.728 13 13.01 13 16.963c0 .294.02.585.056.87zM7.5 8C8.328 8 9 7.328 9 6.5S8.328 5 7.5 5 6 5.672 6 6.5 6.672 8 7.5 8zm8 0c.828 0 1.5-.672 1.5-1.5S16.328 5 15.5 5 14 5.672 14 6.5 14.672 8 15.5 8zm3.5 7c.552 0 1-.448 1-1s-.448-1-1-1-1 .448-1 1 .448 1 1 1zm6 0c.552 0 1-.448 1-1s-.448-1-1-1-1 .448-1 1 .448 1 1 1z"/></svg>