<svg xmlns="http://www.w3.org/2000/svg" width="840" height="705"><path fill-rule="evenodd" d="M735 249.5c65.3 32.7 104.1 89.8 104.1 157.2 0 142.9-173.5 298.1-432.8 298.1C206.2 704.8 0 598.6 0 421c0-85.7 49-185.8 138.8-277.7C226.6 53.5 326.6.4 404.2.4c36.7 0 69.4 12.3 93.9 36.8 14.3 14.3 28.6 36.8 32.7 69.4 22.5-6.1 44.9-8.2 65.3-8.2 71.5 0 106.2 34.7 120.5 55.1 12.3 20.4 24.5 51 18.4 96zm-61.2 63.3c-10.2-4.1-18.4-10.2-24.5-20.4-4.1-10.2-6.1-20.4-2-30.6 10.2-26.5 10.2-47 0-61.3-10.3-16.4-34.8-20.5-53.2-20.5-26.5 0-57.2 6.1-91.9 20.4-14.3 6.1-30.6 2-40.8-6.1-12.2-10.2-16.3-24.5-14.3-38.8 4.1-18.4 6.1-44.9-8.2-61.3C428.7 84 414.4 82 404.2 82c-55.1 0-134.8 47-206.2 118.4C122.5 278 81.7 355.6 81.7 421c0 124.5 167.4 202.1 324.6 202.1 218.5 0 351.2-126.6 351.2-216.4 0-42.9-30.7-77.6-83.7-93.9z"/></svg>
